<svg xmlns="http://www.w3.org/2000/svg" xmlns:xlink="http://www.w3.org/1999/xlink" id="Layer_1" width="128" height="128" enable-background="new 0 0 128 128" overflow="visible" version="1.1" viewBox="0 0 128 128" xml:space="preserve"><path d="M4,64c0,33.636,27.364,61,61,61s61-27.364,61-61S98.636,3,65,3S4,30.364,4,64z" opacity=".2"/><path d="M3,64c0,34.188,27.813,62,62,62c34.188,0,62-27.813,62-62c0-34.187-27.813-62-62-62C30.813,2,3,29.813,3,64z" opacity=".2"/><linearGradient id="XMLID_7_" x1="60.49" x2="69.656" y1="1.742" y2="126.241" gradientUnits="userSpaceOnUse"><stop offset="0" style="stop-color:#a70000"/><stop offset="1" style="stop-color:#a70000"/></linearGradient><path fill="url(#XMLID_7_)" d="M4,63c0,33.636,27.364,61,61,61s61-27.364,61-61S98.636,2,65,2S4,29.364,4,63z"/><linearGradient id="XMLID_8_" x1="57.765" x2="72.515" y1="1.689" y2="126.69" gradientUnits="userSpaceOnUse"><stop offset="0" style="stop-color:#bd0000"/><stop offset=".352" style="stop-color:#c40000"/><stop offset=".869" style="stop-color:#d80000"/><stop offset="1" style="stop-color:#de0000"/></linearGradient><circle cx="65" cy="63" r="60" fill="url(#XMLID_8_)"/><linearGradient id="XMLID_9_" x1="23.375" x2="71.625" y1="14.566" y2="67.816" gradientUnits="userSpaceOnUse"><stop offset="0" style="stop-color:#e05e5e"/><stop offset="1" style="stop-color:#d81818"/></linearGradient><path fill="url(#XMLID_9_)" d="M57.75,56.5c24.934-8.476,65.898-6.226,65.898-6.226C117.811,23.25,93.771,3,65,3 C31.863,3,5,29.863,5,63c0,8.284,1.679,16.176,4.715,23.354C9.715,86.354,32.817,64.976,57.75,56.5z"/><linearGradient id="XMLID_10_" x1="63.818" x2="72.118" y1="54.581" y2="124.92" gradientUnits="userSpaceOnUse"><stop offset="0" style="stop-color:#bd0000"/><stop offset=".043" style="stop-color:#c10606"/><stop offset=".294" style="stop-color:#d62424"/><stop offset=".541" style="stop-color:#e63a3a"/><stop offset=".78" style="stop-color:#ef4747"/><stop offset="1" style="stop-color:#f24b4b"/></linearGradient><path fill="url(#XMLID_10_)" d="M65,122C32.03,122,5.283,95.406,5.013,62.5C5.011,62.667,5,62.833,5,63c0,33.137,26.863,60,60,60 c33.137,0,60-26.863,60-60c0-0.167-0.012-0.333-0.013-0.5C124.717,95.406,97.97,122,65,122z"/><linearGradient id="XMLID_11_" x1="-68.751" x2="-194.001" y1="-319.85" y2="-319.85" gradientTransform="matrix(-1 0 0 -1 -66 -286.5)" gradientUnits="userSpaceOnUse"><stop offset="0" style="stop-color:#e57373"/><stop offset=".118" style="stop-color:#ec9393"/><stop offset=".266" style="stop-color:#f4b4b4"/><stop offset=".39" style="stop-color:#f9c9c9"/><stop offset=".472" style="stop-color:#fbd0d0"/><stop offset=".548" style="stop-color:#f9c8c8"/><stop offset=".67" style="stop-color:#f5b1b1"/><stop offset=".821" style="stop-color:#ed8b8b"/><stop offset=".994" style="stop-color:#e35858"/><stop offset="1" style="stop-color:#e35656"/></linearGradient><path fill="url(#XMLID_11_)" d="M65,4.101c32.97,0,59.717,26.594,59.987,59.5c0.001-0.167,0.013-0.333,0.013-0.5 c0-33.137-26.863-60-60-60c-33.137,0-60,26.863-60,60c0,0.167,0.011,0.333,0.013,0.5C5.283,30.695,32.03,4.101,65,4.101z"/><linearGradient id="XMLID_12_" x1="61.692" x2="69.442" y1="46.315" y2="83.065" gradientUnits="userSpaceOnUse"><stop offset="0" style="stop-color:#bd0000"/><stop offset=".167" style="stop-color:#c10907"/><stop offset=".445" style="stop-color:#cd2319"/><stop offset=".796" style="stop-color:#e04c36"/><stop offset="1" style="stop-color:#ed6749"/></linearGradient><path fill="url(#XMLID_12_)" d="M26,49c-0.552,0-1,0.448-1,1v24c0,0.553,0.448,1,1,1h78c0.553,0,1-0.447,1-1V50 c0-0.552-0.447-1-1-1H26z"/><rect width="78" height="24" x="26" y="50" fill="#FFF"/><polygon fill="#CCC" points="27 51 104 51 104 50 26 50 26 74 27 74"/></svg>